<?xml version="1.0" encoding="utf-8"?>
<svg id="Layer_1" data-name="Layer 1" width="120" height="120" viewBox="0 0 120 120" xmlns="http://www.w3.org/2000/svg" xmlns:bx="https://boxy-svg.com">
  <title>heads</title>
  <g>
    <path d="M114.6,60a54.61206,54.61206,0,0,1-102,27.108,53.80039,53.80039,0,0,1-5.988-15.612A54.94484,54.94484,0,0,1,5.4,60,54.63072,54.63072,0,0,1,73.284,7.032a53.6595,53.6595,0,0,1,15.384,6.504A54.62611,54.62611,0,0,1,114.6,60Z" style=""/>
    <path d="M105,60a44.98374,44.98374,0,0,1-42.684,44.94H62.28c-.756.036-1.512.06-2.28.06a45.00313,45.00313,0,0,1-7.716-89.34h.036A44.98939,44.98939,0,0,1,105,60Z" style="fill: rgb(181, 165, 144);"/>
    <path d="M99.6,60.6a44.99555,44.99555,0,0,1-37.284,44.34H62.28c-.756.036-1.512.06-2.28.06a45.00313,45.00313,0,0,1-7.716-89.34h.036c.756-.036,1.512-.06,2.28-.06a44.98562,44.98562,0,0,1,45,45Z" style="fill: rgb(143, 24, 13);"/>
    <path d="M99.804,22.59595l-6.78,6.78-3.096,3.096L29.376,93.024l-6.78,6.78A54.42023,54.42023,0,0,1,13.8,88.308,53.80039,53.80039,0,0,1,7.812,72.696,54.94484,54.94484,0,0,1,6.6,61.2,54.63072,54.63072,0,0,1,74.484,8.232a53.6595,53.6595,0,0,1,15.384,6.504A54.36778,54.36778,0,0,1,99.804,22.59595Z" style="opacity: 0.14; fill: rgb(247, 245, 245);"/>
    <g transform="matrix(1, 0, 0, 1, -4.300341, -1.433447)">
      <text style="fill: rgb(198, 186, 168); font-family: Roboto-Bold, Roboto; font-size: 21.1px; font-style: italic; font-weight: 700; letter-spacing: 0.927948px; white-space: pre;" transform="matrix(1.084694, 0.037877, -0.034899, 0.999391, -0.760947, -0.553064)" x="46.096" y="67.959" bx:origin="0.682108 0.492471">NO</text>
      <text style="font-family: Roboto-Bold, Roboto; font-size: 22px; font-style: italic; font-weight: 700; letter-spacing: 0.926757px; paint-order: fill; white-space: pre;" x="47.3" y="68.953" transform="matrix(0.99863, -0.052336, 0.052336, 0.99863, -3.044013, 5.130826)" bx:origin="0.879 0.544">NO</text>
    </g>
  </g>
</svg>